<?xml version="1.0" standalone="no"?>
<!DOCTYPE svg PUBLIC "-//W3C//DTD SVG 20010904//EN"
 "http://www.w3.org/TR/2001/REC-SVG-20010904/DTD/svg10.dtd">
<svg version="1.0" xmlns="http://www.w3.org/2000/svg"
 width="500.000000pt" height="488.000000pt" viewBox="0 0 500.000000 488.000000"
 preserveAspectRatio="xMidYMid meet">

<g transform="translate(0.000000,488.000000) scale(0.100000,-0.100000)"
fill="#000000" stroke="none">
<path d="M235 4797 c-82 -32 -136 -87 -163 -166 -9 -24 -12 -170 -12 -501 l0
-467 23 -34 c15 -23 37 -38 65 -47 37 -12 46 -12 79 5 20 10 46 31 57 46 20
28 21 42 24 478 l3 449 442 0 c497 0 491 -1 530 74 24 47 16 95 -23 139 l-28
32 -484 2 c-353 1 -491 -1 -513 -10z"/>
<path d="M3774 4800 c-59 -24 -88 -108 -57 -166 39 -75 33 -74 530 -74 l442 0
3 -449 c3 -436 4 -450 24 -478 11 -15 37 -36 57 -46 33 -17 42 -17 79 -5 29 9
50 24 65 47 l24 35 -3 480 c-3 453 -4 483 -22 520 -25 50 -72 97 -122 122 -37
18 -67 19 -519 21 -264 1 -490 -2 -501 -7z"/>
<path d="M903 4049 c-24 -11 -56 -36 -73 -55 -64 -73 -61 7 -58 -1590 l3
-1449 22 -40 c27 -51 68 -90 115 -109 33 -14 209 -16 1590 -16 1481 0 1555 1
1593 19 22 10 55 34 72 54 66 76 63 -8 63 1567 0 1570 3 1492 -61 1564 -16 19
-49 44 -73 55 -42 21 -46 21 -1597 21 l-1554 0 -42 -21z m1761 -709 c235 -60
419 -244 482 -484 22 -81 22 -232 0 -316 -61 -237 -243 -422 -477 -486 -86
-24 -252 -24 -338 0 -377 103 -585 498 -457 867 69 197 252 365 458 419 99 26
232 26 332 0z m582 -1580 c267 -69 469 -259 554 -523 12 -38 23 -97 23 -135
l2 -67 -1325 0 -1325 0 2 67 c0 38 11 97 23 135 84 262 285 453 550 522 71 19
113 20 746 20 642 1 674 0 750 -19z"/>
<path d="M118 1264 c-58 -31 -58 -31 -58 -536 0 -288 4 -477 10 -500 17 -59
69 -120 130 -150 l55 -28 478 -1 c528 -1 506 -4 548 64 41 65 0 155 -80 177
-21 6 -213 10 -463 10 l-428 0 0 435 c0 473 -1 481 -55 523 -33 26 -96 29
-137 6z"/>
<path d="M4745 1258 c-54 -42 -55 -50 -55 -523 l0 -435 -427 0 c-251 0 -443
-4 -464 -10 -80 -22 -121 -112 -80 -177 41 -65 19 -62 546 -63 l479 -1 55 28
c62 31 114 92 131 151 6 23 10 212 10 500 0 508 0 506 -60 537 -43 22 -102 19
-135 -7z"/>
</g>
</svg>
